<svg width="36" height="35" viewBox="0 0 36 35" fill="none" xmlns="http://www.w3.org/2000/svg">
<path fill-rule="evenodd" clip-rule="evenodd" d="M35.355 1.82199C36.5579 3.67493 36.0309 6.15216 34.178 7.35503C28.8538 10.8113 24.8575 14.6409 21.0316 20.1348C20.8552 20.3881 20.5183 21.0354 19.9832 22.2377C19.8137 22.6187 19.5808 23.1569 19.3294 23.7377C18.9931 24.5149 18.6238 25.3685 18.3288 26.0241C17.7356 27.3426 17.0454 28.7841 16.2871 30.0088C15.9059 30.6245 15.4535 31.2745 14.9247 31.8588C14.4203 32.4163 13.6706 33.1116 12.6518 33.5652C10.1651 34.6721 8.0002 33.4115 7.19982 32.8756C6.23335 32.2285 5.34679 31.3426 4.74502 30.7334C4.58857 30.575 4.44425 30.4279 4.30953 30.2905C3.81827 29.7897 3.45474 29.4191 3.09728 29.1092C3.0251 29.0467 2.96501 28.9975 2.91653 28.9595C1.04354 28.435 -0.215738 26.6067 0.0302201 24.6176C0.301318 22.4251 2.29841 20.8676 4.49085 21.1387C5.49924 21.2633 6.31421 21.6556 6.86607 21.9827C7.43673 22.3209 7.93563 22.7161 8.33684 23.0638C8.94285 23.5891 9.57559 24.2323 10.0763 24.7441C10.3784 24.1616 10.6972 23.4885 11.0331 22.7419C11.3762 21.9793 11.6402 21.3657 11.9089 20.7413C12.1422 20.1989 12.3791 19.6484 12.6744 18.9849C13.171 17.8691 13.7899 16.5347 14.4666 15.563C18.8809 9.22435 23.6259 4.66721 29.822 0.644933C31.6749 -0.557938 34.1522 -0.0309516 35.355 1.82199ZM8.95113 26.5339C8.9511 26.5335 8.95661 26.5278 8.96778 26.5179C8.95674 26.5293 8.95116 26.5342 8.95113 26.5339ZM11.6589 26.2335C11.7 26.255 11.7219 26.2695 11.7226 26.2713C11.7232 26.2732 11.7027 26.2625 11.6589 26.2335ZM2.76043 28.8482C2.76029 28.8476 2.77001 28.853 2.78999 28.8663C2.77055 28.8555 2.76056 28.8489 2.76043 28.8482Z" fill="#52A7C6"/>
</svg>
