<svg width="23" height="35" viewBox="0 0 23 35" fill="none" xmlns="http://www.w3.org/2000/svg">
<path fill-rule="evenodd" clip-rule="evenodd" d="M0.791606 4.13934C0.912183 2.21011 2.57388 0.743902 4.50311 0.864479C6.32628 0.978427 8.20531 1.65378 9.87255 2.47668C11.5899 3.32431 13.3276 4.45097 14.9196 5.7082C16.511 6.96505 18.0248 8.40603 19.263 9.91658C20.47 11.3891 21.5721 13.1177 22.0966 14.9533C23.2774 19.0861 21.071 22.3134 18.8522 24.3602C16.6452 26.3962 13.6832 28.0052 11.3802 29.2057C10.994 29.4071 10.6297 29.595 10.2845 29.7731C10.0551 29.8914 9.83414 30.0054 9.62079 30.1161C9.88056 30.7724 9.94484 31.5133 9.76058 32.2503C9.29176 34.1256 7.39149 35.2658 5.51621 34.797C4.77833 34.6125 4.06162 34.3882 3.42357 34.0954C2.83927 33.8273 1.99704 33.3583 1.3526 32.5184C0.565449 31.4926 0.273232 30.1631 0.645582 28.8568C0.947853 27.7964 1.59899 27.0726 2.00197 26.6819C2.82066 25.8881 3.95057 25.2236 4.86658 24.7171C5.56282 24.3322 6.3742 23.9135 7.17975 23.4979C7.50487 23.3302 7.82903 23.1629 8.14429 22.9986C10.5057 21.7675 12.6724 20.5375 14.1059 19.2151C15.5276 17.9036 15.4736 17.253 15.3659 16.8764C15.2081 16.3241 14.748 15.4506 13.8493 14.3541C12.9816 13.2956 11.8461 12.2006 10.5812 11.2017C9.31676 10.2031 7.99105 9.35425 6.77436 8.75372C5.50758 8.12847 4.58201 7.88307 4.06647 7.85085C2.13723 7.73027 0.671028 6.06857 0.791606 4.13934ZM6.30718 27.7152C6.30776 27.715 6.3181 27.7198 6.33649 27.7303C6.3158 27.7206 6.3066 27.7154 6.30718 27.7152Z" fill="white"/>
</svg>
